<svg xmlns="http://www.w3.org/2000/svg" class="clickable pc10" viewBox="0 0 198 300"><path d="M68.662 251.387c0 15.842 1.103 26.14 3.123 30.496 2.021 4.356 4.042 5.94 13.595 5.94v5.94H37.247v-5.94c9.186 0 11.39-2.376 13.411-6.733 2.021-4.356 3.123-13.069 3.123-29.703V53.762c0-12.277-2.572-19.802-7.716-19.802-2.205 0-5.695 2.376-9.187 6.733l-1.102-3.961L51.208 18.91C61.864 7.029 66.825 1.089 67.56 1.089c.919 0 1.103 1.188 1.103 4.753v245.545z" class="d1"/><path d="M151.152 296.14c-24.985 0-41.521-64.158-41.521-147.327.001-83.961 17.27-147.329 41.521-147.329 24.434 0 41.52 62.575 41.52 147.328s-17.086 147.327-41.52 147.327zm-23.884-140.198c0 26.534.735 64.158 5.145 92.674 3.307 21.386 8.818 35.644 18.556 35.644 16.351 0 24.066-41.98 24.066-135.446 0-92.277-6.798-135.446-23.883-135.446-7.165 0-12.31 8.317-15.8 22.179-5.512 21.781-6.431 40.792-7.899 85.545-.185 5.94-.185 22.574-.185 34.852z" class="d2"/></svg>