<svg xmlns="http://www.w3.org/2000/svg" class="clickable pclogo" viewBox="0 0 321.732 300"><path d="M82.8 0C75.7 0 67.9 1.4 60 4.7 31.5 16.1 20.6 37.3 20.6 56.3v241.9h16.6V73.5c5.1 2.6 14 5 24.8 5 9.5 0 20.5-1.9 31.3-7.5 20.1-10.3 27.1-24.9 27-37.8 0-4.6-.9-9-2.4-13C113.5 8.4 99.9 0 82.8 0M286.964 300l17.3-9.5c-6.6-15.1-33.7-25.5-49.6-30.4 9.1-4.1 21.9-9.6 32.4-12.5l.1-9.9c-15.6-.5-35.9-3.6-49.7-4.5 10.4-8.9 22.3-13.6 32.7-20.5v-16c-24.6 5.5-43.4-2.7-69.4.3 10.4-10.5 39-27.6 52.5-36.3v-9.5c-17.8.4-40-8.3-53.8-8.6 13.9-10.2 54.4-25.2 62.2-33.9v-9.6c-11.3.3-30.6-7.6-40.4-8.3 12.1-5.2 44.4-14.3 57.4-25.1v-9.8c-8.9-.9-22.4-7.2-31.7-8.5 9.1-5 50.6-18.6 48.8-44l-13.2-3.4c-6.7 29.3-49.2 36.7-73.5 48l9.2 9.5c7.8 0 26.9 6.6 36 7.9-17 10.6-54.9 16.4-70.7 26l9 9.3c10.3-.5 37.3 8.4 44.3 8.5-11.4 7.8-56.5 22.6-70.3 34.1l9.4 9.4c14.6-.5 42.5 8.1 49.7 8.3-9.1 9.3-43.5 28.1-50.2 39.6l8.9 12.6c12.1-4.7 45.3.9 57.8.2-5.7 6-37.2 15.9-41.3 22.2l9 12.2c8.8-3 34 .3 40.8-.1-5.2 4.5-16.9 9.1-19.8 12.5l4.1 10.3c12.8-.1 48.4 16.2 52 29.5"/></svg>